# xmcd
# 
# Track frame offsets:
#     150
#     19248
#     34751
#     55247
#     68675
#     92865
#     112625
#     131319
#     149106
#     171017
#     190003
#     207561
#     228212
#     247149
#     266372
#     285630
#     303627
#     324368
#     343716
# 
# Disc length: 4783
# 
# Revision: 1
# Processed by: cddbd v1.5.2PL0 Copyright (c) Steve Scherf et al.
# Submitted via: BonkEnc v1.0
# 
DISCID=1412ad13
DTITLE=KENNY G - Ultimate
DYEAR=2003
DGENRE=New Age
TTITLE0=Everlasting
TTITLE1=Havana
TTITLE2=Brazil
TTITLE3=What A Wonderful World - Louis Armstrong With Kenn
TTITLE4=The Look Of Love (From Casino Royale)
TTITLE5=Silhouette
TTITLE6=One More Time - Kenny G With Chant? Moore
TTITLE7=Theme From Dying Young
TTITLE8=Forever In Love
TTITLE9=We´ve Saved The Best For Last
TTITLE10=Songbird
TTITLE11=Jasmine Flower
TTITLE12=The Girl From Ipanema (Garota De Ipanema)
TTITLE13=By The Time This Night Is Over
TTITLE14=The Champion´s Theme
TTITLE15=Don´t Make Me Wait For Love
TTITLE16=The Moment
TTITLE17=My Heart Will Go On
TTITLE18=The Wedding Song
EXTD=YEAR: 2003
EXTT0=
EXTT1=
EXTT2=
EXTT3=
EXTT4=
EXTT5=
EXTT6=
EXTT7=
EXTT8=
EXTT9=
EXTT10=
EXTT11=
EXTT12=
EXTT13=
EXTT14=
EXTT15=
EXTT16=
EXTT17=
EXTT18=
PLAYORDER=
